<?xml version="1.0"?>
<svg fill="#a18b59" xmlns="http://www.w3.org/2000/svg" viewBox="0 0 64 64"><g data-name="Layer 2" id="Layer_2"><path d="M16,13a5,5,0,1,0,5,5A5,5,0,0,0,16,13Zm0,8a3,3,0,1,1,3-3A3,3,0,0,1,16,21Z"/><path d="M5,62H34A17,17,0,0,0,51,45V42.81a14.12,14.12,0,0,0,2.67-1.14,1,1,0,0,0,.49-1,3.12,3.12,0,0,1,3.51-3.51,1,1,0,0,0,1-.49A13,13,0,0,0,60,33.53a1,1,0,0,0-.35-1.05,3.1,3.1,0,0,1,0-5A1,1,0,0,0,60,26.47a13,13,0,0,0-1.29-3.14,1,1,0,0,0-1-.49,3.12,3.12,0,0,1-3.51-3.51,1,1,0,0,0-.49-1A14.12,14.12,0,0,0,51,17.19V12h2a1,1,0,0,0,.89-.55,1,1,0,0,0-.09-1l-6-8a1,1,0,0,0-1.6,0l-6,8a1,1,0,0,0-.09,1A1,1,0,0,0,41,12h2v5.19a14.12,14.12,0,0,0-2.67,1.14,1,1,0,0,0-.49,1,3.12,3.12,0,0,1-3.51,3.51,1,1,0,0,0-1,.49A13,13,0,0,0,34,26.47a1,1,0,0,0,.35,1.05,3.1,3.1,0,0,1,0,5A1,1,0,0,0,34,33.53a13,13,0,0,0,1.29,3.14,1,1,0,0,0,1,.49,3.12,3.12,0,0,1,3.51,3.51,1,1,0,0,0,.49,1A14.12,14.12,0,0,0,43,42.81V47a9,9,0,0,1-9,9H30.39L32,51.32A1.19,1.19,0,0,0,32,51V25a3,3,0,0,0-3-3,3,3,0,0,0-3,3V35.58l-2-.4V29a5,5,0,0,0-5-5H13a5,5,0,0,0-5,5V41a1,1,0,0,0,1,1V56H5a1,1,0,0,0-1,1v4A1,1,0,0,0,5,62ZM47,4.67,51,10H43ZM51,27a5,5,0,0,1,0,6ZM49,12V34.57a5,5,0,0,1-4,0V12ZM41.87,40.22a5.14,5.14,0,0,0-5.09-5.09,11.07,11.07,0,0,1-.64-1.54,5.07,5.07,0,0,0,0-7.18,11.07,11.07,0,0,1,.64-1.54,5.14,5.14,0,0,0,5.09-5.09A8.76,8.76,0,0,1,43,19.29v5a7,7,0,0,0,.49,11.77,7,7,0,0,0,7,0A7,7,0,0,0,51,24.28v-5a8.76,8.76,0,0,1,1.13.49,5.14,5.14,0,0,0,5.09,5.09,11.07,11.07,0,0,1,.64,1.54,5.07,5.07,0,0,0,0,7.18,11.07,11.07,0,0,1-.64,1.54,5.14,5.14,0,0,0-5.09,5.09,11.07,11.07,0,0,1-1.54.64,5.07,5.07,0,0,0-7.18,0A11.07,11.07,0,0,1,41.87,40.22ZM43,27v6a5,5,0,0,1,0-6ZM28,25a1,1,0,0,1,1-1,1,1,0,0,1,.71.31A.93.93,0,0,1,30,25v1H28Zm0,15.79a2.92,2.92,0,0,0,0-4.4V28h2V50H28ZM29.61,52,29,53.84,28.39,52Zm-3.56-.68L27.61,56H23V42a1,1,0,0,0,1-.84l1.47.31a2.67,2.67,0,0,0,.56.06V51A1.19,1.19,0,0,0,26.05,51.32Zm.19-13.65a.94.94,0,0,1,.41,1.66.94.94,0,0,1-.79.19L15,37.19V31a1,1,0,0,1,2,0v4a1,1,0,0,0,.8,1ZM16,43a1,1,0,0,0-1,.85L13.14,56H11V42H21V56H18.86L17,43.85A1,1,0,0,0,16,43Zm.83,13H15.17L16,50.58ZM10,29a3,3,0,0,1,3-3h6a3,3,0,0,1,3,3v5.78l-3-.6V31a3,3,0,0,0-6,0v7a1,1,0,0,0,.79,1l4.77,1H10ZM6,58H34A11,11,0,0,0,45,47V42.12a3,3,0,0,1,4,0V45A15,15,0,0,1,34,60H6Z"/></g></svg>
