<svg id="Layer_1" enable-background="new 0 0 512 512" viewBox="0 0 512 512" xmlns="http://www.w3.org/2000/svg"><path d="m256 80.41c18.03 0 32.7-14.67 32.7-32.7s-14.67-32.71-32.7-32.71-32.7 14.67-32.7 32.7 14.67 32.71 32.7 32.71zm0-53.41c11.42 0 20.7 9.29 20.7 20.7 0 11.42-9.29 20.7-20.7 20.7-11.42 0-20.7-9.29-20.7-20.7s9.28-20.7 20.7-20.7zm198.34 324.99h-19.52v-30.88c0-3.31-2.69-6-6-6h-38.3v-24.88h19.52c3.31 0 6-2.69 6-6v-41.86c0-3.31-2.69-6-6-6h-19.52v-30.87c0-3.31-2.69-6-6-6h-122.52v-45.08h45.64c3.31 0 6-2.69 6-6v-17.32c0-23.94-19.48-43.42-43.42-43.42h-28.44c-23.94 0-43.42 19.48-43.42 43.42v17.32c0 3.31 2.69 6 6 6h45.64v45.08h-122.53c-3.31 0-6 2.69-6 6v30.88h-19.52c-3.31 0-6 2.69-6 6v41.86c0 3.31 2.69 6 6 6h19.52v24.88h-38.3c-3.31 0-6 2.69-6 6v30.88h-19.51c-3.31 0-6 2.69-6 6v41.86c0 3.31 2.69 6 6 6h51.03c3.31 0 6-2.69 6-6v-41.86c0-3.31-2.69-6-6-6h-19.52v-24.88h76.6v24.88h-19.52c-3.31 0-6 2.69-6 6v41.86c0 3.31 2.69 6 6 6h51.03c3.31 0 6-2.69 6-6v-41.86c0-3.31-2.69-6-6-6h-19.52v-30.88c0-3.31-2.69-6-6-6h-38.3v-24.88h19.52c3.31 0 6-2.69 6-6v-41.86c0-3.31-2.69-6-6-6h-19.52v-24.88h116.54v24.88h-19.52c-3.31 0-6 2.69-6 6v41.86c0 3.31 2.69 6 6 6h19.52v24.88h-19.52c-3.31 0-6 2.69-6 6v41.86c0 3.31 2.69 6 6 6h19.52v48.23h-58.47c-3.31 0-6 2.69-6 6v19.94h-19.52c-3.31 0-6 2.69-6 6v41.85c0 3.31 2.69 6 6 6h51.03c3.31 0 6-2.69 6-6v-41.86c0-3.31-2.69-6-6-6h-19.52v-13.94h116.94v13.94h-19.52c-3.31 0-6 2.69-6 6v41.86c0 3.31 2.69 6 6 6h51.03c3.31 0 6-2.69 6-6v-41.86c0-3.31-2.69-6-6-6h-19.52v-19.94c0-3.31-2.69-6-6-6h-58.45v-48.23h19.52c3.31 0 6-2.69 6-6v-41.86c0-3.31-2.69-6-6-6h-19.52v-24.88h19.52c3.31 0 6-2.69 6-6v-41.86c0-3.31-2.69-6-6-6h-19.52v-24.87h116.53v24.88h-19.52c-3.31 0-6 2.69-6 6v41.86c0 3.31 2.69 6 6 6h19.52v24.88h-38.3c-3.31 0-6 2.69-6 6v30.88h-19.52c-3.31 0-6 2.69-6 6v41.86c0 3.31 2.69 6 6 6h51.03c3.31 0 6-2.69 6-6v-41.86c0-3.31-2.69-6-6-6h-19.52v-24.88h76.6v24.88h-19.52c-3.31 0-6 2.69-6 6v41.86c0 3.31 2.69 6 6 6h51.03c3.31 0 6-2.69 6-6v-41.86c.01-3.32-2.67-6.01-5.99-6.01zm-243.98-220.88c0-17.33 14.1-31.42 31.42-31.42h28.44c17.33 0 31.42 14.1 31.42 31.42v11.32h-91.29v-11.32zm-107.67 262.74h-39.03v-29.86h39.03zm88.6 0h-39.03v-29.86h39.03zm-44.3-115.61h-39.03v-29.86h39.03zm64.06 206.76h-39.03v-29.86h39.03zm128.94 0h-39.03v-29.86h39.03zm-64.47-128.03h-39.03v-29.86h39.03zm0-78.73h-39.03v-29.86h39.03zm89.49-29.86h39.03v29.86h-39.03zm-5.26 145.47h-39.03v-29.86h39.03zm88.59 0h-39.03v-29.86h39.03z"/></svg>