<svg fill="#a18b59" height="409.6pt" viewBox="0 0 409.6 409.6" width="409.6pt" xmlns="http://www.w3.org/2000/svg"><path d="m268.378906 263.09375c33.304688-34.292969 33.007813-87.765625-.6875-121.722656-34.066406-34.324219-89.980468-34.816406-124.660156-1.105469-16.816406 16.34375-26.191406 38.203125-26.402344 61.539063-.207031 23.335937 8.769532 45.351562 25.285156 61.996093 22.835938 23.019531 56 31.609375 87.1875 22.753907 3.804688 2.96875 11.839844 7.839843 23.523438 7.839843 6.386719 0 13.859375-1.453125 22.328125-5.472656 1.8125-.855469 2.945313-2.695313 2.921875-4.695313-.03125-2-1.226562-3.804687-3.054688-4.617187-2.253906-1.003906-8.929687-4.835937-9.957031-9.167969-.148437-.644531-.601562-2.585937 1.917969-5.742187.539062-.523438 1.070312-1.058594 1.597656-1.605469zm-13.46875 9.730469c.996094 4.179687 3.660156 7.574219 6.535156 10.160156-17.40625 4.3125-26.960937-5.210937-27.394531-5.65625-.980469-1.042969-2.335937-1.609375-3.726562-1.609375-.519531 0-1.042969.082031-1.554688.242188-28.289062 9.007812-58.785156 1.59375-79.585937-19.371094-14.574219-14.691406-22.5-34.113282-22.3125-54.695313.183594-20.578125 8.457031-39.859375 23.300781-54.289062 30.667969-29.808594 80.125-29.378907 110.25.972656 29.722656 29.960937 29.992187 77.132813.613281 107.382813-.519531.535156-1.050781 1.070312-1.589844 1.589843-.140624.132813-.269531.273438-.390624.417969-4.929688 5.964844-4.976563 11.371094-4.144532 14.855469zm0 0"/><path d="m239.648438 180.785156h-69.699219c-2.828125 0-5.121094 2.289063-5.121094 5.121094 0 2.828125 2.292969 5.117188 5.121094 5.117188h69.699219c2.832031 0 5.121093-2.289063 5.121093-5.117188 0-2.832031-2.289062-5.121094-5.121093-5.121094zm0 0"/><path d="m239.648438 217.820312h-69.699219c-2.828125 0-5.121094 2.289063-5.121094 5.121094 0 2.828125 2.292969 5.117188 5.121094 5.117188h69.699219c2.832031 0 5.121093-2.289063 5.121093-5.117188 0-2.832031-2.289062-5.121094-5.121093-5.121094zm0 0"/><path d="m402.613281 73.679688c0-36.773438-29.917969-66.695313-66.691406-66.695313-36.777344 0-66.695313 29.921875-66.695313 66.695313 0 36.773437 29.917969 66.695312 66.695313 66.695312 36.773437 0 66.691406-29.921875 66.691406-66.695312zm-100.367187 45.207031c.621094-14.347657 9.992187-26.644531 23.84375-30.847657 1.96875-.597656 3.394531-2.324218 3.605468-4.378906.210938-2.054687-.835937-4.03125-2.648437-5.015625-6.515625-3.542969-10.5625-10.347656-10.5625-17.757812 0-11.140625 9.066406-20.207031 20.207031-20.207031 11.136719 0 20.203125 9.066406 20.203125 20.207031 0 7.628906-4.238281 14.527343-11.066406 18-1.839844.9375-2.933594 2.886719-2.777344 4.949219.152344 2.058593 1.535157 3.824218 3.496094 4.472656 13.378906 4.433594 22.433594 16.613281 23.050781 30.574218-9.414062 7.035157-21.050781 11.253907-33.675781 11.253907-12.628906 0-24.261719-4.21875-33.675781-11.25zm-22.78125-45.207031c0-31.128907 25.324218-56.453126 56.457031-56.453126 31.128906 0 56.453125 25.324219 56.453125 56.453126 0 14.011718-5.160156 26.816406-13.640625 36.695312-2.730469-11.726562-10.097656-21.863281-20.515625-27.964844 5.640625-5.609375 8.917969-13.285156 8.917969-21.523437 0-16.785157-13.660157-30.445313-30.445313-30.445313s-30.445312 13.660156-30.445312 30.445313c0 7.914062 3.0625 15.367187 8.339844 20.9375-10.957032 6.015625-18.6875 16.390625-21.484376 28.546875-8.476562-9.878906-13.636718-22.683594-13.636718-36.691406zm0 0"/><path d="m73.679688 6.984375c-36.773438 0-66.695313 29.921875-66.695313 66.695313 0 36.773437 29.921875 66.695312 66.695313 66.695312 36.773437 0 66.695312-29.921875 66.695312-66.695312 0-36.773438-29.921875-66.695313-66.695312-66.695313zm-33.675782 111.902344c.625-14.347657 9.996094-26.644531 23.847656-30.847657 1.96875-.597656 3.394532-2.324218 3.601563-4.378906.210937-2.054687-.832031-4.03125-2.648437-5.015625-6.515626-3.542969-10.558594-10.347656-10.558594-17.757812 0-11.140625 9.0625-20.207031 20.203125-20.207031s20.207031 9.066406 20.207031 20.207031c0 7.628906-4.242188 14.523437-11.070312 18-1.839844.9375-2.9375 2.886719-2.78125 4.949219.15625 2.058593 1.535156 3.824218 3.496093 4.472656 13.378907 4.433594 22.4375 16.613281 23.054688 30.574218-9.414063 7.035157-21.046875 11.253907-33.675781 11.253907-12.628907 0-24.261719-4.21875-33.675782-11.25zm76.492188-8.511719c-2.734375-11.726562-10.105469-21.863281-20.519532-27.964844 5.636719-5.609375 8.917969-13.285156 8.917969-21.523437 0-16.785157-13.660156-30.445313-30.445312-30.445313-16.785157 0-30.445313 13.660156-30.445313 30.445313 0 7.914062 3.066406 15.367187 8.339844 20.9375-10.957031 6.015625-18.683594 16.390625-21.484375 28.546875-8.476563-9.878906-13.632813-22.683594-13.632813-36.691406 0-31.128907 25.324219-56.453126 56.453126-56.453126 31.128906 0 56.457031 25.324219 56.457031 56.453126 0 14.011718-5.160157 26.816406-13.640625 36.695312zm0 0"/><path d="m335.921875 269.765625c-36.777344 0-66.695313 29.917969-66.695313 66.695313 0 36.773437 29.917969 66.695312 66.695313 66.695312 36.773437 0 66.691406-29.921875 66.691406-66.695312 0-36.777344-29.917969-66.695313-66.691406-66.695313zm-33.675781 111.898437c.621094-14.34375 9.992187-26.640624 23.84375-30.84375 1.96875-.601562 3.394531-2.324218 3.605468-4.378906.210938-2.054687-.835937-4.03125-2.648437-5.015625-6.515625-3.546875-10.5625-10.351562-10.5625-17.761719 0-11.140624 9.066406-20.203124 20.207031-20.203124 11.136719 0 20.203125 9.0625 20.203125 20.203124 0 7.632813-4.238281 14.53125-11.066406 18-1.839844.941407-2.933594 2.890626-2.777344 4.949219.152344 2.0625 1.535157 3.828125 3.496094 4.476563 13.378906 4.429687 22.433594 16.613281 23.050781 30.574218-9.414062 7.03125-21.050781 11.25-33.675781 11.25-12.628906 0-24.261719-4.21875-33.675781-11.25zm76.488281-8.507812c-2.730469-11.726562-10.097656-21.863281-20.515625-27.964844 5.640625-5.613281 8.917969-13.285156 8.917969-21.527344 0-16.785156-13.660157-30.445312-30.445313-30.445312s-30.445312 13.660156-30.445312 30.445312c0 7.914063 3.0625 15.371094 8.339844 20.941407-10.957032 6.015625-18.6875 16.390625-21.484376 28.546875-8.476562-9.878906-13.636718-22.683594-13.636718-36.691406 0-31.132813 25.324218-56.457032 56.457031-56.457032 31.128906 0 56.453125 25.324219 56.453125 56.457032 0 14.007812-5.160156 26.816406-13.640625 36.695312zm0 0"/><path d="m73.679688 269.765625c-36.773438 0-66.695313 29.917969-66.695313 66.695313 0 36.773437 29.921875 66.695312 66.695313 66.695312 36.773437 0 66.695312-29.921875 66.695312-66.695312 0-36.777344-29.921875-66.695313-66.695312-66.695313zm-33.675782 111.898437c.625-14.34375 9.996094-26.640624 23.847656-30.84375 1.96875-.601562 3.394532-2.324218 3.601563-4.378906.210937-2.054687-.832031-4.03125-2.648437-5.015625-6.515626-3.546875-10.558594-10.351562-10.558594-17.761719 0-11.140624 9.0625-20.203124 20.203125-20.203124s20.207031 9.0625 20.207031 20.203124c0 7.632813-4.242188 14.527344-11.070312 18-1.839844.941407-2.9375 2.890626-2.78125 4.949219.15625 2.0625 1.535156 3.828125 3.496093 4.476563 13.378907 4.429687 22.4375 16.613281 23.054688 30.574218-9.414063 7.03125-21.046875 11.25-33.675781 11.25-12.628907 0-24.261719-4.21875-33.675782-11.25zm76.492188-8.507812c-2.734375-11.726562-10.105469-21.863281-20.519532-27.964844 5.636719-5.613281 8.917969-13.285156 8.917969-21.527344 0-16.785156-13.660156-30.445312-30.445312-30.445312-16.785157 0-30.445313 13.660156-30.445313 30.445312 0 7.914063 3.066406 15.371094 8.339844 20.941407-10.957031 6.015625-18.683594 16.390625-21.484375 28.546875-8.476563-9.878906-13.632813-22.683594-13.632813-36.691406 0-31.132813 25.324219-56.457032 56.453126-56.457032 31.128906 0 56.457031 25.324219 56.457031 56.457032 0 14.007812-5.160157 26.816406-13.640625 36.695312zm0 0"/><path d="m145.339844.351562c-2.625-1-5.601563.304688-6.609375 2.949219l-6.574219 17.167969c-1.015625 2.640625.308594 5.601562 2.949219 6.609375l17.164062 6.578125c.601563.230469 1.21875.339844 1.832031.339844 2.058594 0 4-1.25 4.777344-3.292969 1.015625-2.636719-.308594-5.597656-2.949218-6.609375l-5.332032-2.042969c17.070313-7.804687 35.273438-11.8125 54.203125-11.8125 20.238281 0 39.667969 4.523438 57.75 13.441407.730469.359374 1.5.53125 2.257813.53125 1.890625 0 3.707031-1.046876 4.597656-2.855469 1.253906-2.535157.207031-5.605469-2.328125-6.855469-19.5-9.621094-40.453125-14.5-62.277344-14.5-20.535156 0-40.277343 4.375-58.785156 12.894531l2.273437-5.933593c1.015626-2.640626-.308593-5.601563-2.949218-6.609376zm0 0"/><path d="m22.496094 277.660156c2.058594 0 4-1.25 4.777344-3.289062l6.578124-17.167969c1.011719-2.636719-.3125-5.597656-2.953124-6.609375-2.625-1.007812-5.597657.304688-6.609376 2.953125l-2.15625 5.628906c-7.859374-17.121093-11.894531-35.382812-11.894531-54.375 0-20.242187 4.523438-39.671875 13.441407-57.75 1.253906-2.535156.210937-5.605469-2.324219-6.855469-2.539063-1.25-5.605469-.210937-6.855469 2.324219-9.621094 19.5-14.5 40.457031-14.5 62.28125 0 20.441407 4.335938 40.105469 12.785156 58.542969l-5.628906-2.152344c-2.625-1-5.601562.304688-6.609375 2.949219-1.011719 2.640625.308594 5.597656 2.949219 6.609375l17.167968 6.570312c.601563.230469 1.222657.339844 1.832032.339844zm0 0"/><path d="m274.570312 382.199219-17.171874-6.574219c-2.625-1.011719-5.597657.304688-6.609376 2.949219-1.015624 2.640625.3125 5.601562 2.949219 6.609375l5.675781 2.175781c-17.1875 7.933594-35.535156 12-54.613281 12-20.242187 0-39.671875-4.519531-57.75-13.4375-2.539062-1.25-5.605469-.210937-6.855469 2.324219-1.253906 2.535156-.210937 5.605468 2.324219 6.855468 19.5 9.617188 40.457031 14.5 62.28125 14.5 20.511719 0 40.238281-4.367187 58.726563-12.871093l-2.140625 5.589843c-1.015625 2.640626.308593 5.601563 2.949219 6.609376.597656.230468 1.21875.339843 1.828124.339843 2.0625 0 4-1.25 4.78125-3.289062l6.574219-17.171875c1.015625-2.636719-.308593-5.597656-2.949219-6.609375zm0 0"/><path d="m402.515625 148.089844c2.625 1.011718 5.597656-.304688 6.609375-2.949219 1.011719-2.640625-.308594-5.601563-2.949219-6.609375l-17.171875-6.570312c-2.617187-1.007813-5.59375.308593-6.609375 2.949218l-6.570312 17.164063c-1.015625 2.640625.3125 5.601562 2.949219 6.609375.601562.230468 1.222656.339844 1.832031.339844 2.058593 0 4-1.25 4.78125-3.289063l2.054687-5.371094c7.878906 17.136719 11.917969 35.421875 11.917969 54.4375 0 20.238281-4.519531 39.667969-13.4375 57.75-1.257813 2.535157-.210937 5.605469 2.324219 6.855469.730468.359375 1.5.527344 2.257812.527344 1.890625 0 3.707032-1.042969 4.597656-2.855469 9.617188-19.5 14.5-40.453125 14.5-62.277344 0-20.601562-4.402343-40.410156-12.980468-58.964843zm0 0"/></svg>