<svg fill="#a18b59" enable-background="new 0 0 64 64" height="512" viewBox="0 0 64 64" width="512" xmlns="http://www.w3.org/2000/svg"><g id="_x31_7"><g><circle cx="14" cy="22" r="1"/><circle cx="20" cy="22" r="1"/><path d="m15 14.764h2v4.472h-2z" transform="matrix(.894 -.447 .447 .894 -5.914 8.95)"/><path d="m19 14.764h2v4.472h-2z" transform="matrix(.894 -.447 .447 .894 -5.491 10.739)"/><path d="m17 27h-2v2h2c2.206 0 4-1.794 4-4h-2c0 1.103-.897 2-2 2z"/><path d="m60.313 42.547c-.111-.269-.069-.547.109-.726l1.482-1.481-4.245-4.245-1.479 1.481c-.18.181-.46.222-.75.101-.261-.109-.43-.339-.43-.588v-2.089h-6v2.089c0 .093-.03.181-.075.263-.297-1.343-1.494-2.352-2.925-2.352h-21.211l-.544-.151c-1.472-.401-2.571-1.58-2.871-3.075l-.076-.382c1.439-1.171 2.504-2.687 3.098-4.391h.604c2.206 0 4-1.794 4-4 0-.687-.19-1.325-.497-1.891l.227-.91c.179-.713.27-1.449.27-2.186 0-.186-.017-.369-.028-.552 1.437.97 3.167 1.538 5.028 1.538 4.963 0 9-4.038 9-9s-4.037-9-9-9-9 4.038-9 9c0 .184.017.364.028.546-1.44-.976-3.176-1.546-5.042-1.546h-5.973c-.358 0-.71.027-1.058.068-1.309-1.317-3.082-2.068-4.955-2.068-3.859 0-7 3.14-7 7 0 2.865 1.725 5.375 4.332 6.45l.035.142c-.226.421-.367.896-.367 1.408v14c0 .365.044.719.119 1.062-2.54 2.044-4.119 5.172-4.119 8.576v17.362h62v-2h-22.132l-.571-4h5.703c1.432 0 2.629-1.01 2.926-2.354.044.083.074.171.074.265v2.089h6v-2.089c0-.249.169-.479.453-.598.267-.11.546-.07.726.109l1.481 1.482 4.245-4.245-1.481-1.479c-.18-.181-.222-.459-.101-.751.108-.261.339-.43.588-.43h2.089v-6h-2.089c-.249.001-.479-.168-.598-.452zm-31.181 18.453h-2.132v-4h2.704zm-4.132 0h-7v-10.556c1.127-.99 2.124-2.091 3-3.286v6.842c0 1.654 1.346 3 3 3h1zm-8-12.331c-1.189-1.092-2.211-2.328-3.069-3.669h6.132c-.86 1.347-1.878 2.58-3.063 3.669zm4.864-12.771c-.533.542-.864 1.283-.864 2.102v5h-8.179c-.31-.649-.591-1.314-.825-2h.004c1.654 0 3-1.346 3-3 0-1.305-.842-2.406-2.008-2.818.72-.736 1.239-1.657 1.506-2.692.787.32 1.626.506 2.482.506h.033c.857-.005 1.697-.196 2.484-.52.363 1.415 1.206 2.613 2.367 3.422zm-11.864 1.102h2c.552 0 1 .448 1 1s-.448 1-1 1h-2c-.552 0-1-.448-1-1s.448-1 1-1zm15-12h-.135c.048-.376.074-.757.079-1.142l.041-2.858h.015c1.103 0 2 .897 2 2s-.897 2-2 2zm6-15c0-1.111.226-2.116.564-3h4.872c.338.884.564 1.889.564 3s-.226 2.116-.564 3h-4.872c-.338-.884-.564-1.889-.564-3zm3-6.661c.38.373.888.937 1.38 1.661h-2.76c.492-.724 1-1.288 1.38-1.661zm-3.725 1.661h-1.165c.582-.569 1.263-1.034 2.013-1.374-.292.408-.58.87-.848 1.374zm6.602-1.374c.75.34 1.431.806 2.013 1.374h-1.165c-.268-.504-.556-.966-.848-1.374zm-1.497 11.374c-.492.725-1.001 1.289-1.38 1.662-.38-.373-.888-.937-1.38-1.662zm2.345 0h1.165c-.582.569-1.263 1.034-2.013 1.374.292-.408.58-.87.848-1.374zm-6.602 1.374c-.75-.34-1.431-.806-2.013-1.374h1.165c.268.504.556.966.848 1.374zm9.192-3.374h-1.765c.274-.907.45-1.907.45-3s-.176-2.093-.45-3h1.765c.434.911.685 1.925.685 3s-.251 2.089-.685 3zm-12.63-6h1.765c-.274.907-.45 1.907-.45 3s.176 2.093.45 3h-1.765c-.434-.911-.685-1.925-.685-3s.251-2.089.685-3zm-7.699 4c3.868 0 7.014 3.146 7.014 7.014 0 .49-.062.976-.163 1.454-.553-.289-1.171-.468-1.837-.468h-1.985l-.07 4.832c-.027 2.392-1.122 4.613-3.002 6.096l-.092.072c-.808.636-1.818.99-2.848.996-.008 0-.016 0-.022 0-1.033 0-2.047-.352-2.891-1.019-1.964-1.551-3.09-3.877-3.09-6.38v-4.597c0-1.103.897-2 2-2v-2c-2.206 0-4 1.794-4 4h-1c-.314 0-.611.062-.895.152-.062-.377-.105-.756-.105-1.138 0-3.868 3.146-7.014 7.014-7.014zm-16.986 3c0-2.757 2.243-5 5-5 .907 0 1.781.246 2.543.697-3.247 1.36-5.536 4.568-5.542 8.302-1.236-.924-2.001-2.385-2.001-3.999zm4 8c0-.551.448-1 1-1h1v2.597c0 .474.043.941.107 1.403h-1.107c-.552 0-1-.449-1-1zm0 4.816c.314.112.648.184 1 .184h1.585c.604 1.697 1.67 3.214 3.113 4.41l-.073.364c-.3 1.495-1.399 2.674-2.87 3.075l-.649.177c-.74.201-1.442.485-2.106.825zm-4 18.822c0-2.608 1.137-5.014 2.988-6.683.894 1.21 2.31 2.006 3.919 2.036 1.115 3.667 3.204 6.92 6.093 9.458v10.551h-7v-5.584c0-1.081-.256-2.164-.739-3.129l-.306-.614c-.625-1.249-.955-2.648-.955-4.043 0-.975.156-1.937.465-2.859l.484-1.454-1.898-.633-.483 1.454c-.378 1.126-.568 2.301-.568 3.492 0 1.704.403 3.412 1.166 4.937l.306.614c.345.69.528 1.463.528 2.235v5.584h-4zm28.153 15.362 1.592-11.142c.069-.489.495-.858.989-.858h2.531c.494 0 .92.369.989.858l1.593 11.142zm15.847-7c0 .552-.448 1-1 1h-5.99l-.775-5.425c-.21-1.468-1.486-2.575-2.969-2.575h-2.531c-1.483 0-2.76 1.107-2.97 2.575l-.775 5.425h-5.99c-.552 0-1-.448-1-1v-16c0-.552.448-1 1-1h22c.552 0 1 .448 1 1zm14-7h-.089c-1.062 0-2.019.654-2.443 1.684-.423 1.016-.211 2.157.541 2.911l.066.065-1.415 1.415-.067-.067c-.752-.751-1.895-.963-2.927-.532-1.012.417-1.666 1.374-1.666 2.435v.089h-2v-.089c0-1.062-.654-2.019-1.684-2.443-.102-.043-.211-.055-.316-.085v-2.409c.838.635 1.87 1.026 3 1.026 2.757 0 5-2.243 5-5s-2.243-5-5-5c-1.13 0-2.162.391-3 1.026v-2.41c.111-.032.225-.045.334-.091 1.012-.418 1.666-1.375 1.666-2.436v-.089h2v.089c0 1.062.654 2.019 1.684 2.443 1.014.422 2.156.211 2.911-.541l.065-.066 1.415 1.415-.067.067c-.751.752-.963 1.894-.532 2.927.417 1.012 1.374 1.666 2.435 1.666h.089zm-12-1c0-1.654 1.346-3 3-3s3 1.346 3 3-1.346 3-3 3-3-1.346-3-3z"/><path d="m53 33c5.514 0 10-4.486 10-10s-4.486-10-10-10-10 4.486-10 10 4.486 10 10 10zm-4.418-3.337c.857-1.616 2.55-2.663 4.418-2.663s3.561 1.047 4.418 2.663c-1.267.843-2.785 1.337-4.418 1.337s-3.151-.494-4.418-1.337zm1.602-6.663h5.631c-.414 1.161-1.514 2-2.816 2s-2.401-.839-2.815-2zm0-2c.414-1.161 1.514-2 2.816-2s2.402.839 2.816 2zm2.816-6c4.411 0 8 3.589 8 8 0 2.052-.783 3.919-2.057 5.336-.67-1.085-1.61-1.964-2.724-2.543 1.08-.917 1.781-2.268 1.781-3.793 0-2.757-2.243-5-5-5s-5 2.243-5 5c0 1.525.701 2.876 1.781 3.794-1.115.579-2.054 1.458-2.724 2.543-1.274-1.418-2.057-3.285-2.057-5.337 0-4.411 3.589-8 8-8z"/><path d="m31 27h2v2h-2z"/><path d="m35 27h2v2h-2z"/><path d="m39 27h2v2h-2z"/></g></g></svg>