<?xml version="1.0" encoding="UTF-8"?>
<svg xmlns="http://www.w3.org/2000/svg" viewBox="0 0 64 64" width="512" height="512"><g id="Ikon"><path d="M26,23H21a2.0023,2.0023,0,0,0-2,2v5a2.0023,2.0023,0,0,0,2,2h5a2.0023,2.0023,0,0,0,2-2V25A2.0023,2.0023,0,0,0,26,23Zm-5,7V25h5l.001,5Zm-6-7H10a2.0023,2.0023,0,0,0-2,2v5a2.0023,2.0023,0,0,0,2,2h5a2.0023,2.0023,0,0,0,2-2V25A2.0023,2.0023,0,0,0,15,23Zm-5,7V25h5l.001,5Zm33,2h5a2.0023,2.0023,0,0,0,2-2V25a2.0023,2.0023,0,0,0-2-2H43a2.0023,2.0023,0,0,0-2,2v5A2.0023,2.0023,0,0,0,43,32Zm0-7h5l.001,5H43ZM32,32h5a2.0023,2.0023,0,0,0,2-2V25a2.0023,2.0023,0,0,0-2-2H32a2.0023,2.0023,0,0,0-2,2v5A2.0023,2.0023,0,0,0,32,32Zm0-7h5l.001,5H32Zm-6,9H21a2.0023,2.0023,0,0,0-2,2v5a2.0023,2.0023,0,0,0,2,2h5a2.0023,2.0023,0,0,0,2-2V36A2.0023,2.0023,0,0,0,26,34Zm-5,7V36h5l.001,5Zm-6-7H10a2.0023,2.0023,0,0,0-2,2v5a2.0023,2.0023,0,0,0,2,2h5a2.0023,2.0023,0,0,0,2-2V36A2.0023,2.0023,0,0,0,15,34Zm-5,7V36h5l.001,5Zm52,5a5.0031,5.0031,0,0,0-4-4.8916V38.5a2.5041,2.5041,0,0,0-2-2.4494V11a3.0033,3.0033,0,0,0-3-3H45V7a3,3,0,0,0-6,0V8H19V7a3,3,0,0,0-6,0V8H5a3.0033,3.0033,0,0,0-3,3V47a3.0033,3.0033,0,0,0,3,3H35.1843A2.9956,2.9956,0,0,0,37,51.8157v5.5364a2.6024,2.6024,0,0,0,2.2386,2.6345A2.5028,2.5028,0,0,0,42,57.5V51.8157a2.9994,2.9994,0,0,0,1.5321-1.2226l9.4912,3.1376A2.4934,2.4934,0,0,0,58,53.5V50.8916A5.0031,5.0031,0,0,0,62,46ZM41,7a1,1,0,0,1,2,0v5a1,1,0,0,1-2,0ZM15,7a1,1,0,0,1,2,0v5a1,1,0,0,1-2,0ZM5,10h8v2a3,3,0,0,0,6,0V10H39v2a3,3,0,0,0,6,0V10h8a1.0009,1.0009,0,0,1,1,1v6H4V11A1.0009,1.0009,0,0,1,5,10ZM4,47V19H54V36.5128a2.4859,2.4859,0,0,0-.97,1.6912L50,38.93V36a2.0023,2.0023,0,0,0-2-2H43a2.0023,2.0023,0,0,0-2,2v3H39V36a2.0023,2.0023,0,0,0-2-2H32a2.0023,2.0023,0,0,0-2,2v5a2.0023,2.0023,0,0,0,2,2h.7786A2.9774,2.9774,0,0,0,32,45v1a2.9774,2.9774,0,0,0,.7786,2H5A1.0009,1.0009,0,0,1,4,47Zm39.5674-6.5283A3,3,0,0,0,43,39.78V36h5l.0007,3.4093ZM37,49V42a1.0013,1.0013,0,0,1,1-1h3a1.0013,1.0013,0,0,1,1,1v7a1.0013,1.0013,0,0,1-1,1H38A1.0013,1.0013,0,0,1,37,49Zm-1.8157-8H32V36h5l.0006,3.1841A2.9951,2.9951,0,0,0,35.1843,41ZM34,45a1.0013,1.0013,0,0,1,1-1v3a1.0013,1.0013,0,0,1-1-1Zm6,12.5a.5.5,0,0,1-1,0V52h1Zm4-15.0752,9-2.1567V51.6162l-9-2.9751ZM56,53.5a.5.5,0,0,1-1,0v-15a.5.5,0,0,1,1,0Zm2-4.6714V43.1714a3,3,0,0,1,0,5.6572Z"/></g></svg>
