<svg fill="#a18b59" height="480pt" viewBox="-1 0 480 480.39551" width="480pt" xmlns="http://www.w3.org/2000/svg"><path d="m72.199219 435.722656v36.671875c0 4.417969 3.574219 8 8 8h320c4.421875 0 8-3.582031 8-8v-36.671875c0-11.632812-7.304688-21.582031-17.5625-25.519531 1.722656-5.261719 2.042969-10.945313.839843-16.601563-2.679687-12.621093-13.007812-22.566406-25.710937-24.734374-9.390625-1.617188-18.976563.96875-26.199219 7.0625-7.226562 6.105468-11.367187 15.019531-11.367187 24.464843 0 3.34375.535156 6.65625 1.566406 9.800781-3.632813 1.390626-6.871094 3.578126-9.566406 6.289063-2.699219-2.710937-5.929688-4.890625-9.5625-6.28125 1.722656-5.261719 2.042969-10.945313.839843-16.601563-2.679687-12.621093-13.007812-22.566406-25.710937-24.734374-9.398437-1.617188-18.984375.96875-26.199219 7.0625-7.226562 6.105468-11.367187 15.019531-11.367187 24.464843 0 3.34375.535156 6.65625 1.566406 9.800781-3.632813 1.390626-6.871094 3.578126-9.566406 6.289063-2.699219-2.710937-5.929688-4.890625-9.5625-6.28125 1.722656-5.261719 2.042969-10.945313.839843-16.601563-2.679687-12.621093-13.007812-22.566406-25.710937-24.734374-9.398437-1.617188-18.976563.96875-26.199219 7.0625-7.226562 6.105468-11.367187 15.019531-11.367187 24.464843 0 3.34375.535156 6.65625 1.566406 9.800781-3.632813 1.390626-6.871094 3.578126-9.566406 6.289063-2.699219-2.710937-5.929688-4.890625-9.5625-6.28125 1.722656-5.261719 2.042969-10.945313.839843-16.601563-2.679687-12.621093-13.007812-22.566406-25.710937-24.734374-9.390625-1.617188-18.976563.96875-26.199219 7.0625-7.226562 6.105468-11.367187 15.019531-11.367187 24.464843 0 3.34375.535156 6.65625 1.566406 9.800781-10.265625 3.9375-17.566406 13.886719-17.566406 25.527344zm267.328125-11.328125h2.894531c3.160156 0 6.023437-1.855469 7.304687-4.742187 1.289063-2.890625.757813-6.257813-1.359374-8.609375-1.90625-2.121094-4.167969-5.679688-4.167969-10.648438 0-4.71875 2.070312-9.183593 5.6875-12.230469 3.664062-3.097656 8.34375-4.351562 13.191406-3.519531 6.191406 1.054688 11.441406 6.109375 12.742187 12.285157 1.488282 6.96875-1.742187 11.832031-3.796874 14.113281-2.121094 2.34375-2.648438 5.71875-1.371094 8.609375 1.296875 2.886718 4.160156 4.742187 7.320312 4.742187h2.898438c6.246094 0 11.328125 5.082031 11.328125 11.328125v28.671875h-64v-28.671875c0-6.246094 5.078125-11.328125 11.328125-11.328125zm-80 0h2.894531c3.160156 0 6.023437-1.855469 7.304687-4.742187 1.289063-2.890625.757813-6.257813-1.359374-8.609375-1.90625-2.121094-4.167969-5.679688-4.167969-10.648438 0-4.71875 2.070312-9.183593 5.6875-12.230469 3.671875-3.097656 8.34375-4.351562 13.191406-3.519531 6.191406 1.054688 11.441406 6.109375 12.742187 12.285157 1.488282 6.96875-1.742187 11.832031-3.796874 14.113281-2.121094 2.34375-2.648438 5.71875-1.371094 8.609375 1.296875 2.886718 4.160156 4.742187 7.320312 4.742187h2.898438c6.246094 0 11.328125 5.082031 11.328125 11.328125v28.671875h-64v-28.671875c0-6.246094 5.078125-11.328125 11.328125-11.328125zm-80 0h2.894531c3.160156 0 6.023437-1.855469 7.304687-4.742187 1.289063-2.890625.757813-6.257813-1.359374-8.609375-1.90625-2.121094-4.167969-5.679688-4.167969-10.648438 0-4.71875 2.070312-9.183593 5.6875-12.230469 3.671875-3.097656 8.328125-4.351562 13.191406-3.519531 6.191406 1.054688 11.441406 6.109375 12.742187 12.285157 1.488282 6.96875-1.742187 11.832031-3.796874 14.113281-2.121094 2.34375-2.648438 5.71875-1.371094 8.609375 1.296875 2.886718 4.160156 4.742187 7.320312 4.742187h2.898438c6.246094 0 11.328125 5.082031 11.328125 11.328125v28.671875h-64v-28.671875c0-6.246094 5.078125-11.328125 11.328125-11.328125zm-91.328125 11.328125c0-6.246094 5.078125-11.328125 11.328125-11.328125h2.894531c3.160156 0 6.023437-1.855469 7.304687-4.742187 1.289063-2.890625.757813-6.257813-1.359374-8.609375-1.90625-2.121094-4.167969-5.679688-4.167969-10.648438 0-4.71875 2.070312-9.183593 5.6875-12.230469 3.671875-3.097656 8.335937-4.351562 13.191406-3.519531 6.191406 1.054688 11.441406 6.109375 12.742187 12.285157 1.488282 6.96875-1.742187 11.832031-3.796874 14.113281-2.121094 2.34375-2.648438 5.71875-1.371094 8.609375 1.296875 2.886718 4.160156 4.742187 7.320312 4.742187h2.898438c6.246094 0 11.328125 5.082031 11.328125 11.328125v28.671875h-64zm0 0"/><path d="m478.597656 451.59375-168-224c-1.511718-2.015625-3.886718-3.199219-6.398437-3.199219h-1.136719l-14.863281-96.613281v-32.328125l48-6v110.941406h16v-125.894531c14.582031 3.902344 29.445312 5.925781 44.308593 5.925781 18.296876 0 36.5625-2.949219 54.21875-8.832031 3.269532-1.09375 5.472657-4.148438 5.472657-7.589844v-56c0-2.570312-1.234375-4.992187-3.320313-6.488281-2.097656-1.51171875-4.785156-1.914063-7.210937-1.105469-29.855469 9.960938-61.636719 10.648438-91.917969 2l-7.351562-2.101562c-2.410157-.6875-5.007813-.2109378-7.015626 1.304687-2.007812 1.511719-3.183593 3.878907-3.183593 6.390625v33.230469l-57.800781 6.425781c1.191406-3.59375 1.800781-7.375 1.800781-11.265625 0-19.847656-16.152344-36-36-36-19.847657 0-36 16.152344-36 36 0 3.890625.605469 7.671875 1.796875 11.265625l-64.917969-7.214844c-2.257813-.273437-4.511719.46875-6.214844 1.988282-1.699219 1.515625-2.664062 3.683594-2.664062 5.960937v32c0 4.03125 3.007812 7.441407 7.007812 7.9375l56.992188 7.128907v32.023437l-22.371094 96.910156h-1.628906c-2.511719 0-4.890625 1.183594-6.402344 3.199219l-168 224 12.800781 9.601562 87.601563-116.800781h90v-16h-78l36-48h82v-16h-70l18-24h120l42 56h-62v16h74l111.597656 148.800781zm-38.398437-432.863281v39.394531c-28.25 8.285156-58.015625 8.40625-86.457031.285156l-1.542969-.445312v-39.386719c28.972656 7.753906 59.140625 7.792969 88 .152344zm-206.417969 205.664062 6.417969-35.277343 6.414062 35.277343zm29.097656 0-14.816406-81.429687c-.6875-3.800782-4-6.570313-7.863281-6.570313-3.867188 0-7.175781 2.769531-7.867188 6.570313l-14.8125 81.429687h-23.265625l21.742188-94.199219c.128906-.59375.203125-1.191406.203125-1.800781v-40c0-4.03125-3.007813-7.4375-7.007813-7.933593l-56.992187-7.128907v-16l63.117187 7.007813c.289063.039062.585938.054687.882813.054687h8.445312c3.25 0 6.175781-1.96875 7.410157-4.984375 1.230468-3.015625.511718-6.460937-1.816407-8.734375-3.886719-3.808593-6.039062-8.878906-6.039062-14.28125 0-11.023437 8.964843-20 20-20 11.03125 0 20 8.976563 20 20 0 5.402344-2.152344 10.472657-6.042969 14.28125-2.328125 2.273438-3.039062 5.726563-1.816406 8.734375 1.226562 3.007813 4.160156 4.984375 7.410156 4.984375h8.449219c.292969 0 .589843-.015625.878906-.046875l63.121094-7.015625v16l-56.992188 7.128907c-4 .496093-7.007812 3.902343-7.007812 7.933593v40c0 .410157.03125.816407.09375 1.21875l14.578125 94.78125zm0 0"/><path d="m16.199219.394531h16v16h-16zm0 0"/><path d="m16.199219 32.394531h16v16h-16zm0 0"/><path d="m32.199219 16.394531h16v16h-16zm0 0"/><path d="m.199219 16.394531h16v16h-16zm0 0"/><path d="m72.199219 168.394531h16v16h-16zm0 0"/><path d="m72.199219 200.394531h16v16h-16zm0 0"/><path d="m88.199219 184.394531h16v16h-16zm0 0"/><path d="m56.199219 184.394531h16v16h-16zm0 0"/><path d="m424.199219 160.394531h16v16h-16zm0 0"/><path d="m424.199219 192.394531h16v16h-16zm0 0"/><path d="m440.199219 176.394531h16v16h-16zm0 0"/><path d="m408.199219 176.394531h16v16h-16zm0 0"/><path d="m440.199219 320.394531h16v16h-16zm0 0"/><path d="m80.199219 72.394531h16v16h-16zm0 0"/></svg>